<svg width="52" height="37" viewBox="0 0 52 37" fill="none" xmlns="http://www.w3.org/2000/svg">
<g clip-path="url(#clip0_8069_1072)">
<path d="M14.6098 18.4998C14.6098 10.8759 19.3174 4.31826 26.0271 1.54593C23.7544 0.586272 21.3195 0.106445 18.7222 0.106445C8.3871 0.106445 0 8.37013 0 18.5531C0 28.7361 8.3871 36.9998 18.7222 36.9998C29.0572 36.9998 23.8085 36.4667 26.0271 35.5603C19.3174 32.7347 14.6098 26.2304 14.6098 18.6064V18.4998Z" fill="#0D80BA"/>
<path d="M33.3317 0.0530824C30.7344 0.0530824 28.2994 0.586223 26.0268 1.49256C32.6823 4.2649 37.3899 10.7692 37.3899 18.3931V18.4465C37.3899 26.0704 32.6823 32.628 25.9727 35.4003C28.1912 36.36 30.6803 36.8398 33.2775 36.8398C43.6126 36.8398 51.9997 28.5761 51.9997 18.3931V18.3398C51.9997 8.21014 43.6126 -0.0535459 33.2775 -0.000231751L33.3317 0.0530824Z" fill="#8AC440"/>
<path d="M37.3898 18.4998V18.4465C37.3898 10.8759 32.6822 4.31823 26.0266 1.5459C19.317 4.37155 14.6094 10.8759 14.6094 18.4998C14.6094 26.1237 19.317 32.6813 26.0266 35.4537C32.7363 32.628 37.4439 26.1237 37.4439 18.4998H37.3898Z" fill="#282964"/>
</g>
<defs>
<clipPath id="clip0_8069_1072">
<rect width="52" height="37" fill="white"/>
</clipPath>
</defs>
</svg>
