<?xml version="1.0" encoding="UTF-8"?>
<svg version="1.1" xmlns="http://www.w3.org/2000/svg" width="1055" height="585">
<path d="M0 0 C0.49886719 -0.3403125 0.99773437 -0.680625 1.51171875 -1.03125 C3.9949859 -2.70756679 6.4947543 -4.35669897 9 -6 C9.93199219 -6.61488281 10.86398437 -7.22976562 11.82421875 -7.86328125 C49.10758282 -31.68453435 94.59428902 -39.82868354 138 -31 C162.51368398 -25.54021453 185.39190572 -14.68647543 205 1 C205.85335938 1.6496875 206.70671875 2.299375 207.5859375 2.96875 C246.87247842 33.64292609 268.79712339 78.52825725 275.3190918 127.390625 C276.07991773 134.13188094 276.19150017 140.8457139 276.1875 147.625 C276.18814453 148.7598584 276.18878906 149.8947168 276.18945312 151.06396484 C276.13426746 159.88990844 275.36694979 168.28569512 274 177 C264.43 177 254.86 177 245 177 C245.165 174.916875 245.33 172.83375 245.5 170.6875 C247.66475228 137.8023661 244.55380755 107.83722551 230 78 C229.54004639 77.05133057 229.54004639 77.05133057 229.07080078 76.08349609 C221.79946314 61.29580424 212.40162354 48.83481593 201 37 C200.03707031 35.94232422 200.03707031 35.94232422 199.0546875 34.86328125 C182.95882173 17.68738986 160.55775823 6.99985703 138.375 0.25 C137.73119385 0.05116211 137.0873877 -0.14767578 136.42407227 -0.35253906 C125.56348483 -3.50225799 114.57547705 -4.36666025 103.3125 -4.3125 C102.09006592 -4.30758545 100.86763184 -4.3026709 99.6081543 -4.29760742 C89.80051081 -4.17147866 80.53131102 -3.28990091 71 -1 C70.3203418 -0.8443457 69.64068359 -0.68869141 68.94042969 -0.52832031 C51.19673658 3.65895724 34.40101766 11.86644013 20 23 C18.65035156 24.03640625 18.65035156 24.03640625 17.2734375 25.09375 C12.57169368 28.78696267 8.13378711 32.63743881 3.88671875 36.84765625 C2 38 2 38 -0.45703125 37.92578125 C-3.51409503 36.81284098 -5.06046114 35.40705411 -7.375 33.125 C-36.96177653 5.66708111 -72.95742608 -5.01375558 -112.69677734 -4.13623047 C-142.33773909 -2.91378726 -170.96695413 10.63970309 -193 30 C-194.25876953 31.07701172 -194.25876953 31.07701172 -195.54296875 32.17578125 C-224.54969386 57.49482968 -242.58751629 95.41349249 -245.85498047 133.75732422 C-248.23943947 170.63213962 -240.82436972 224.79754801 -215.4296875 253.79296875 C-206.76348312 261.56642343 -196.43170443 261.43760752 -185.31396484 261.38476562 C-183.85750404 261.38887869 -182.40104653 261.39434389 -180.94459534 261.40104675 C-177.82735365 261.41270576 -174.71028868 261.41527999 -171.59302902 261.41069031 C-166.65841502 261.40384118 -161.72403081 261.41981463 -156.78945923 261.43908691 C-145.42813133 261.48003076 -134.06681064 261.49147976 -122.70542145 261.50261688 C-112.28085922 261.51313882 -101.85640851 261.5299681 -91.43191493 261.57071257 C-86.5317279 261.58901419 -81.63180682 261.59298124 -76.73159385 261.58577728 C-73.67958746 261.58425076 -70.62771314 261.59506792 -67.57574272 261.60915565 C-66.16649945 261.61314281 -64.75723076 261.61205985 -63.34799767 261.60538292 C-54.08772318 261.56489418 -46.06674291 261.76127822 -38.75 268.125 C-37.81414062 268.90230469 -37.81414062 268.90230469 -36.859375 269.6953125 C-31.58694741 276.23046434 -30.40187971 283.0947268 -30.390625 291.28515625 C-30.37408875 292.22685165 -30.35755249 293.16854706 -30.34051514 294.13877869 C-30.29236581 297.11342098 -30.27073806 300.08755334 -30.25 303.0625 C-30.22181264 305.09312416 -30.19188138 307.12372491 -30.16015625 309.15429688 C-30.08336809 314.1030917 -30.04254128 319.0503216 -30 324 C-21.09 324 -12.18 324 -3 324 C-3.03480469 321.21691406 -3.06960938 318.43382812 -3.10546875 315.56640625 C-3.12892129 312.84579492 -3.14710536 310.12519522 -3.16479492 307.40454102 C-3.17980333 305.5259083 -3.20021652 303.64731016 -3.22631836 301.76879883 C-3.26305386 299.05541407 -3.27980607 296.3424959 -3.29296875 293.62890625 C-3.30845261 292.80040665 -3.32393646 291.97190704 -3.33988953 291.11830139 C-3.34208929 283.35044888 -1.70865985 276.11893039 3.5625 270.1875 C4.16191406 269.47980469 4.76132812 268.77210938 5.37890625 268.04296875 C15.42991579 260.20887339 27.02835052 261.53058781 39.125 261.75 C41.05466898 261.77009397 42.98435815 261.78833961 44.9140625 261.8046875 C49.61028636 261.84503307 54.30367262 261.92336002 59 262 C59 252.76 59 243.52 59 234 C56.08414062 234.05800781 53.16828125 234.11601562 50.1640625 234.17578125 C47.31106276 234.21487783 44.45809392 234.24517902 41.60498047 234.2746582 C39.63609253 234.29966047 37.66729607 234.333674 35.69873047 234.37719727 C13.40432797 234.85743655 13.40432797 234.85743655 4.88720703 227.06762695 C-0.55264654 221.64888066 -3.08519047 214.97075918 -3.34057617 207.30639648 C-3.34011028 205.6612191 -3.32371016 204.01598396 -3.29296875 202.37109375 C-3.28872391 201.49598648 -3.28447906 200.62087921 -3.28010559 199.71925354 C-3.26347981 196.95833928 -3.22585966 194.19818895 -3.1875 191.4375 C-3.17243228 189.55144293 -3.15874756 187.66537427 -3.14648438 185.77929688 C-3.11619676 181.18567577 -3.0574476 176.59368027 -3 172 C-11.91 172 -20.82 172 -30 172 C-30.01417969 174.98804688 -30.02835938 177.97609375 -30.04296875 181.0546875 C-30.07366088 183.97732504 -30.11273099 186.89974036 -30.15258789 189.82226562 C-30.17565695 191.83943717 -30.19013733 193.85672727 -30.19555664 195.87402344 C-30.26948558 218.87161071 -30.26948558 218.87161071 -37.75463867 226.87646484 C-44.25593169 233.13972649 -50.9451599 234.44961034 -59.65234375 234.29296875 C-60.55247696 234.28872391 -61.45261017 234.28447906 -62.38002014 234.28010559 C-65.23282786 234.26341816 -68.08490863 234.22578497 -70.9375 234.1875 C-72.88084912 234.1724403 -74.82420939 234.15875415 -76.76757812 234.14648438 C-81.51199549 234.11354726 -86.25587483 234.0618344 -91 234 C-91.29422852 234.62632324 -91.58845703 235.25264648 -91.89160156 235.89794922 C-94.28098247 240.42935221 -99.27986261 243.1399313 -103.75 245.375 C-111.55343013 246.87565964 -120.00263219 247.19560485 -127 243 C-133.3191406 238.52087538 -138.2472511 233.7144014 -140 226 C-141.09490303 217.0196896 -140.51600827 209.38021478 -135 202 C-129.58822289 196.09081691 -124.82837656 192.5434784 -116.703125 191.62890625 C-108.81146513 191.47714356 -102.37962719 192.02957128 -96 197 C-95.65179199 197.56517334 -95.30358398 198.13034668 -94.94482422 198.71264648 C-93.45697116 201.01861265 -92.26487706 202.41840327 -90 204 C-84.71590241 205.03051341 -79.48288062 204.98134813 -74.125 204.9375 C-72.65882253 204.95061979 -71.19266949 204.96686508 -69.7265625 204.98632812 C-66.15060935 205.02702672 -62.57616635 205.02507697 -59 205 C-59.02618408 203.78006348 -59.05236816 202.56012695 -59.0793457 201.30322266 C-59.17047473 196.73733164 -59.22747541 192.17151947 -59.2746582 187.60498047 C-59.29966047 185.63609253 -59.333674 183.66729607 -59.37719727 181.69873047 C-59.86039818 159.26683858 -59.86039818 159.26683858 -52.2434082 151.12158203 C-45.47230883 144.59869161 -38.43297777 143.53314686 -29.38671875 143.53125 C-28.37712601 143.52363647 -27.36753326 143.51602295 -26.3273468 143.50817871 C-24.19848086 143.4974101 -22.06956223 143.49451137 -19.94067383 143.49902344 C-16.70758527 143.49999397 -13.47688608 143.45837029 -10.24414062 143.4140625 C-8.16667157 143.40885327 -6.08919434 143.40616734 -4.01171875 143.40625 C-3.05722336 143.38985474 -2.10272797 143.37345947 -1.11930847 143.35656738 C6.54675216 143.434307 12.92295761 145.55229202 18.84150696 150.55725098 C25.26005972 157.36492409 26.46181878 165.59419392 26.29296875 174.62890625 C26.28872391 175.50401352 26.28447906 176.37912079 26.28010559 177.28074646 C26.26347981 180.04166072 26.22585966 182.80181105 26.1875 185.5625 C26.17243228 187.44855707 26.15874756 189.33462573 26.14648438 191.22070312 C26.11362937 195.81409083 26.06196135 200.40691647 26 205 C27.64814697 204.97643433 27.64814697 204.97643433 29.32958984 204.95239258 C33.44832889 204.89764801 37.5670365 204.86348972 41.68603516 204.83520508 C43.46082996 204.82021907 45.23558837 204.79982318 47.01025391 204.77368164 C71.90224328 204.41648089 71.90224328 204.41648089 82 214 C87.64056314 220.97648599 88.30998282 227.92931068 88.30078125 236.5546875 C88.30506638 237.45567169 88.3093515 238.35665588 88.31376648 239.28494263 C88.31948481 241.18262902 88.32002855 243.08033733 88.31567383 244.97802734 C88.31251705 247.8594355 88.33599331 250.73981245 88.36132812 253.62109375 C88.36360191 255.47395705 88.36430425 257.32682308 88.36328125 259.1796875 C88.372491 260.02997528 88.38170074 260.88026306 88.39118958 261.75631714 C88.32335693 270.66010568 86.11272396 277.74862594 79.96484375 284.2734375 C72.84776732 290.52740923 65.06848905 291.15435577 55.98046875 291.09765625 C55.12189774 291.0962413 54.26332672 291.09482635 53.3787384 291.09336853 C50.64828951 291.08779057 47.91792393 291.07524214 45.1875 291.0625 C43.3313814 291.05748215 41.4752615 291.05291974 39.61914062 291.04882812 C35.0793952 291.03782836 30.5397117 291.02057893 26 291 C26.01571045 292.1645874 26.0314209 293.3291748 26.04760742 294.52905273 C26.102252 298.88445005 26.13647476 303.23981756 26.16479492 307.59545898 C26.17980333 309.4740917 26.20021652 311.35268984 26.22631836 313.23120117 C26.26305386 315.94458593 26.27980607 318.6575041 26.29296875 321.37109375 C26.31619453 322.61384315 26.31619453 322.61384315 26.33988953 323.88169861 C26.34237964 332.67482899 24.10031159 339.82813126 18.02734375 346.2734375 C10.85009467 352.38585387 2.17196798 353.15363628 -6.92578125 353.16796875 C-7.67280807 353.17129715 -8.4198349 353.17462555 -9.1894989 353.17805481 C-10.7636148 353.18309515 -12.33774128 353.18546403 -13.91186523 353.18530273 C-16.29494229 353.18748393 -18.67755183 353.20565569 -21.06054688 353.22460938 C-43.33085511 353.30822646 -43.33085511 353.30822646 -51.66015625 345.4296875 C-57.97626367 338.50835111 -59.45333384 332.26961232 -59.29296875 323.12890625 C-59.28872391 322.206577 -59.28447906 321.28424774 -59.28010559 320.33396912 C-59.26341364 317.40983965 -59.22577938 314.48641851 -59.1875 311.5625 C-59.17244089 309.57097355 -59.15875464 307.57943621 -59.14648438 305.58789062 C-59.11354122 300.72499062 -59.06182499 295.8626151 -59 291 C-59.71800309 291.00276538 -60.43600618 291.00553076 -61.17576694 291.00837994 C-78.70592931 291.07484602 -96.23605936 291.12438041 -113.76632023 291.15543652 C-122.2440807 291.17085703 -130.72175668 291.19185358 -139.19946289 291.22631836 C-146.59497353 291.25636912 -153.99042293 291.27560993 -161.38599294 291.28226548 C-165.29614854 291.2861514 -169.20612904 291.29518132 -173.1162281 291.31719017 C-176.80900946 291.33780414 -180.50154637 291.3437845 -184.19437981 291.33932304 C-186.17034935 291.34052065 -188.1462933 291.35653068 -190.12219238 291.3732605 C-208.3231819 291.31150395 -224.59244775 286.95151305 -238 274 C-268.33218072 241.12084227 -277.26180229 180.69268787 -275.85961914 137.59863281 C-273.77079359 92.84473132 -255.17553426 51.81251276 -225 19 C-224.49919922 18.4539209 -223.99839844 17.9078418 -223.48242188 17.34521484 C-210.62779896 3.50966763 -195.80917627 -7.44392018 -179 -16 C-178.38979004 -16.31662598 -177.77958008 -16.63325195 -177.15087891 -16.95947266 C-120.80138746 -45.92840584 -50.08392441 -38.00337983 0 0 Z M-118.375 213.625 C-120.19887378 215.94844013 -120.19887378 215.94844013 -120.5625 219 C-120.23496998 222.14627033 -120.23496998 222.14627033 -117.875 224.4375 C-115.08774307 226.24870485 -115.08774307 226.24870485 -111.875 226 C-108.56398704 224.84834332 -107.5575823 224.1151646 -106 221 C-105.41666667 218.5 -105.41666667 218.5 -106 216 C-107.52018248 213.56304526 -107.52018248 213.56304526 -110 212 C-113.6717087 211.38804855 -115.28813568 211.51293494 -118.375 213.625 Z " fill="#ED1C24" transform="translate(285,53)"/>
<path d="M0 0 C6.15404983 5.15199237 10.71932341 11.10367703 11.5 19.30078125 C11.42394531 20.05359375 11.34789062 20.80640625 11.26953125 21.58203125 C10.78241449 26.66947499 10.78241449 26.66947499 12.890625 31.1171875 C14.23316544 32.2496149 15.6135465 33.33800279 17.01953125 34.390625 C19.93067431 36.63243438 22.44641712 39.1724313 25 41.80078125 C28.69972553 45.55171624 32.47673479 49.14524998 36.484375 52.56640625 C38.80114621 54.55990706 41.05419984 56.61632513 43.3125 58.67578125 C47.63260791 62.57441522 52.08071381 66.27581983 56.60546875 69.93359375 C59.113103 71.98437156 61.58021105 74.07431923 64.03588867 76.18676758 C71.50903186 82.60133986 79.28027768 88.57334413 87.13867188 94.50585938 C89.61056203 96.38482302 92.06432314 98.28567426 94.515625 100.19140625 C106.48943503 109.46765277 118.78200674 118.0752716 131.5 126.30078125 C147.61205583 116.43854854 162.58772015 104.8666046 177.5 93.30078125 C178.12390625 92.81867188 178.7478125 92.3365625 179.390625 91.83984375 C186.89050332 86.03865582 194.21577226 80.07207132 201.421875 73.91015625 C204.21666189 71.52606033 207.07051045 69.2227261 209.9375 66.92578125 C215.62140811 62.30552846 220.93324514 57.32371814 226.26953125 52.3125 C228.7575575 49.97975075 231.2869093 47.71027661 233.875 45.48828125 C237.25567107 42.5751498 240.37022294 39.44821108 243.5 36.26953125 C245.43891002 34.3609167 247.43699551 32.57367573 249.5 30.80078125 C255.0607591 26.00176997 260.20098872 20.86154035 265 15.30078125 C265.82673218 14.37954468 265.82673218 14.37954468 266.67016602 13.43969727 C268.51683749 11.36939231 268.51683749 11.36939231 269.90625 9.17773438 C272.28970588 6.04360672 274.50044726 3.72353115 278.47924805 2.88232422 C284.31227106 2.29091074 290.15312299 2.5733431 296 2.80078125 C297.7941915 2.84095455 299.58846938 2.87744857 301.3828125 2.91015625 C305.75735698 2.9978659 310.12772156 3.13564581 314.5 3.30078125 C312.85611492 6.76821596 310.92784132 9.22387188 308.3125 12.05078125 C305.60707511 15.00020807 302.91822494 17.95048457 300.3125 20.98828125 C291.30161427 31.28936198 281.78536377 41.11097332 272.125 50.80078125 C271.29331299 51.63706055 270.46162598 52.47333984 269.60473633 53.33496094 C265.33780735 57.59121939 260.99928561 61.68735987 256.4296875 65.61621094 C253.08712715 68.53418493 249.90131023 71.61768886 246.6875 74.67578125 C241.39045406 79.67871671 236.020646 84.47213003 230.31640625 89.01171875 C227.57056845 91.24342603 224.91430502 93.55049288 222.26074219 95.88989258 C215.03401377 102.25491503 207.57108359 108.19355679 199.87890625 113.984375 C196.92027931 116.21244409 193.99402481 118.47485549 191.08984375 120.7734375 C181.26457 128.54571723 171.19171858 135.7783265 160.78857422 142.75585938 C157.83557224 144.74930897 154.91074457 146.78184155 151.98632812 148.81689453 C149.40586023 150.60710951 146.81166728 152.37635368 144.21142578 154.13769531 C142.63272294 155.21058267 141.06392384 156.29800449 139.49609375 157.38671875 C138.63113281 157.95648437 137.76617187 158.52625 136.875 159.11328125 C136.16085937 159.59410156 135.44671875 160.07492187 134.7109375 160.5703125 C131.38609717 161.66880215 129.65625041 160.71010202 126.5 159.30078125 C124.21967322 157.93821562 122.05453879 156.55693747 119.875 155.05078125 C119.23385254 154.61459473 118.59270508 154.1784082 117.93212891 153.72900391 C115.78243158 152.26100505 113.64123854 150.78108583 111.5 149.30078125 C110.73816406 148.7790332 109.97632813 148.25728516 109.19140625 147.71972656 C96.77182027 139.21057673 84.72071191 130.28044646 72.80615234 121.07958984 C70.76770586 119.50727129 68.72381046 117.94261354 66.67578125 116.3828125 C55.90225817 108.16918127 45.50651855 99.52439445 35.19580078 90.7421875 C33.49765154 89.29878509 31.79409807 87.86196702 30.08984375 86.42578125 C23.92480252 81.21075132 17.89674969 75.88048055 12 70.36328125 C11.37859131 69.78586182 10.75718262 69.20844238 10.11694336 68.61352539 C6.93900936 65.6462147 3.8295518 62.63555345 0.79296875 59.5234375 C-4.92776812 53.30326828 -4.92776812 53.30326828 -12.24609375 49.59765625 C-14.73806667 49.6301153 -14.73806667 49.6301153 -17.13671875 50.01171875 C-22.59084084 50.67883451 -27.54134465 48.63832454 -31.98828125 45.6015625 C-38.18945948 40.43560551 -42.65669069 34.52304703 -43.5 26.30078125 C-44.15824953 17.90809969 -42.22113989 10.88639629 -36.8125 4.42578125 C-27.05102007 -5.73046441 -11.98274184 -8.14451984 0 0 Z M-21.5 18.30078125 C-23.7408243 21.03818501 -23.7408243 21.03818501 -23.4375 23.73828125 C-22.17241457 27.19618142 -20.64787601 28.4406727 -17.5 30.30078125 C-13.86825563 30.38936038 -12.76599175 29.55277343 -10.125 27.05078125 C-8.26469591 24.45624049 -8.26469591 24.45624049 -8.5625 21.67578125 C-9.86058173 18.38730753 -11.17845082 16.9175042 -14.375 15.42578125 C-17.49718803 15.24212313 -19.02746583 16.47891397 -21.5 18.30078125 Z " fill="#ED1C24" transform="translate(153.5,404.69921875)"/>
<path d="M0 0 C4.01527968 3.33182782 7.30559283 7.23904968 10.625 11.25 C10.955 5.64 11.285 0.03 11.625 -5.75 C21.195 -5.75 30.765 -5.75 40.625 -5.75 C40.625 31.21 40.625 68.17 40.625 106.25 C31.055 106.25 21.485 106.25 11.625 106.25 C11.13 97.34 11.13 97.34 10.625 88.25 C9.8 89.44625 8.975 90.6425 8.125 91.875 C1.55646926 100.56142149 -7.62936193 105.56094012 -18.375 107.25 C-32.90594 108.19333194 -46.07659033 105.74351906 -57.62890625 96.43359375 C-67.73735732 86.93893857 -73.84227944 73.4946948 -74.49926758 59.62695312 C-74.58227154 56.45892566 -74.60998079 53.29405331 -74.625 50.125 C-74.645625 49.06023437 -74.66625 47.99546875 -74.6875 46.8984375 C-74.76471568 30.99200816 -69.81443232 17.0080885 -58.73046875 5.44140625 C-43.55824139 -8.67404905 -17.49532522 -12.26683722 0 0 Z M-36.9375 26.375 C-44.48815018 35.28089508 -46.1685874 44.87052348 -45.375 56.25 C-43.57552317 65.71048478 -39.2977783 72.7236176 -31.375 78.25 C-24.25208757 82.43902559 -15.4429592 82.43252381 -7.5625 80.59375 C0.09377719 77.88604221 5.25648521 73.24202659 9 66.0625 C13.19399185 57.10923914 13.09411135 45.3284911 9.875 36.0625 C6.63876479 28.55980938 1.9955924 23.81745242 -5.375 20.25 C-17.737642 16.71119373 -27.09372415 18.21186881 -36.9375 26.375 Z " fill="#263890" transform="translate(621.375,282.75)"/>
<path d="M0 0 C9.57 0 19.14 0 29 0 C31.1346875 5.94 31.1346875 5.94 33.3125 12 C44.79901267 43.30921257 59.8862377 73.5024523 79.41796875 100.59375 C81 103 81 103 81 105 C84.77375015 101.57648189 87.34711295 97.69979936 90.0625 93.4375 C90.77986328 92.31746582 90.77986328 92.31746582 91.51171875 91.17480469 C96.95049512 82.60730814 102.06771657 73.86763453 107 65 C107.45906738 64.17516113 107.91813477 63.35032227 108.39111328 62.50048828 C119.42198719 42.49809452 127.69115021 21.60877329 135 0 C144.9 0 154.8 0 165 0 C156.53848152 40.83602398 136.55629155 79.50517744 112.75 113.47265625 C110.34681813 116.91113745 108.25477476 120.31019796 106.375 124.05859375 C103.91276682 128.64588769 101.64698504 132.41668248 97 135 C87.32460006 137.88294021 76.64200222 138.10256215 67 135 C60.87944732 131.03614692 57.62561276 124.93533644 54.36328125 118.58642578 C52.6892862 115.41051182 50.73273204 112.50811902 48.70605469 109.55004883 C29.86496293 81.83304681 14.17746457 50.80947253 3.875 18.9375 C3.59164795 18.06407959 3.3082959 17.19065918 3.01635742 16.29077148 C1.28225928 10.66083128 0.67903165 6.11128483 0 0 Z " fill="#263890" transform="translate(388,252)"/>
<path d="M0 0 C10.3529655 8.75538232 16.46661493 19.60300106 18.26953125 32.99609375 C18.36097403 35.73668774 18.40967729 38.44468546 18.39453125 41.18359375 C18.39839844 41.89451172 18.40226563 42.60542969 18.40625 43.33789062 C18.40031619 46.49171259 18.2739666 48.9827877 17.26953125 51.99609375 C-9.13046875 52.32609375 -35.53046875 52.65609375 -62.73046875 52.99609375 C-60.51854805 65.79526751 -60.51854805 65.79526751 -52.16796875 74.43359375 C-45.05072952 78.83836069 -37.85634991 78.59769705 -29.73046875 77.99609375 C-23.7131109 76.40780171 -20.2299399 72.99533825 -16.73046875 67.99609375 C-15.74046875 66.01609375 -14.75046875 64.03609375 -13.73046875 61.99609375 C-3.50046875 61.99609375 6.72953125 61.99609375 17.26953125 61.99609375 C14.40502586 74.88636803 9.01505022 85.46125066 -1.98046875 93.18359375 C-17.22402713 102.6656038 -33.85870317 105.44193114 -51.48046875 101.87109375 C-66.08801487 97.97093311 -77.48910194 89.95447387 -85.26171875 76.90234375 C-93.41266807 60.77386956 -94.30674219 40.82870172 -89.05078125 23.6171875 C-84.18223182 10.26468656 -75.96615573 0.35537461 -63.08447266 -5.74755859 C-42.64619659 -14.84638035 -18.27754097 -13.4139893 0 0 Z M-58.91796875 22.87109375 C-62.05573959 28.28104347 -62.73046875 31.64356421 -62.73046875 37.99609375 C-45.57046875 37.99609375 -28.41046875 37.99609375 -10.73046875 37.99609375 C-11.68072312 28.49355004 -12.35198961 23.96168421 -18.91796875 17.74609375 C-24.88803619 12.99544434 -31.62314417 11.39357612 -39.17578125 11.640625 C-47.22861052 12.76112571 -54.00056493 16.40822015 -58.91796875 22.87109375 Z " fill="#263890" transform="translate(894.73046875,287.00390625)"/>
<path d="M0 0 C10.56 0 21.12 0 32 0 C41.83588999 23.93508102 51.65619209 47.86762256 61 72 C64.6648863 63.40356815 68.03034134 54.72323799 71.265625 45.95703125 C71.74904101 44.65367645 72.23275037 43.35043043 72.71673584 42.04728699 C74.48939221 37.27258056 76.25714301 32.49606222 78.02441406 27.71936035 C79.53107536 23.64743741 81.03989199 19.57632711 82.55181122 15.50635338 C83.25696921 13.6053658 83.95887913 11.7031992 84.66070557 9.80097961 C85.2970694 8.08735481 85.2970694 8.08735481 85.94628906 6.33911133 C86.31981506 5.32939774 86.69334106 4.31968414 87.07818604 3.27937317 C88 1 88 1 89 0 C91.29151417 -0.08790975 93.58572524 -0.10694038 95.87890625 -0.09765625 C96.90889992 -0.09553383 96.90889992 -0.09553383 97.95970154 -0.09336853 C100.16067801 -0.08775479 102.36155409 -0.07520007 104.5625 -0.0625 C106.05143083 -0.05748676 107.54036324 -0.05292355 109.02929688 -0.04882812 C112.68623075 -0.03778093 116.34310558 -0.02050713 120 0 C119.38240477 5.5155919 117.47978417 10.14326691 115.34375 15.20703125 C114.96983124 16.10768311 114.59591248 17.00833496 114.21066284 17.9362793 C112.97966828 20.89751229 111.73983419 23.85495849 110.5 26.8125 C109.63430968 28.89061151 108.76924632 30.9689843 107.90478516 33.04760742 C106.13266092 37.30647769 104.35725859 41.5639576 102.57910156 45.8203125 C100.22831078 51.44928027 97.88845786 57.08270694 95.5546875 62.71875 C95.03039658 63.98485359 95.03039658 63.98485359 94.49551392 65.27653503 C93.79993201 66.95642657 93.10438517 68.63633263 92.40887451 70.31625366 C90.68066605 74.48893999 88.94970224 78.66048254 87.21875 82.83203125 C86.5247372 84.50471906 85.8307268 86.17740787 85.13671875 87.85009766 C84.78818848 88.69010315 84.4396582 89.53010864 84.08056641 90.39556885 C81.0456719 97.71041202 78.0115909 105.02559257 74.97784424 112.34091187 C73.91689602 114.89898374 72.85567775 117.45694346 71.79443359 120.01489258 C67.51315749 130.33652896 63.25073534 140.66574473 59 151 C48.44 151 37.88 151 27 151 C28.87844324 145.36467028 30.63300148 140.31351433 33.06640625 134.98828125 C33.34596664 134.37156052 33.62552704 133.75483978 33.91355896 133.11943054 C34.79233381 131.18184014 35.67685335 129.24695787 36.5625 127.3125 C37.45117128 125.3670958 38.33844179 123.42109728 39.22215271 121.47343445 C40.02056567 119.71428231 40.82373773 117.9572924 41.62719727 116.20043945 C42.08022217 115.14429443 42.53324707 114.08814941 43 113 C43.44110107 112.00863037 43.88220215 111.01726074 44.33666992 109.99584961 C45.22510131 105.98335732 44.27156396 104.15585306 42.546875 100.453125 C42.26018448 99.82151459 41.97349396 99.18990417 41.67811584 98.53915405 C41.050438 97.16180045 40.41391064 95.7884535 39.76968384 94.41876221 C38.36633439 91.43398287 37.00638056 88.43004926 35.6431427 85.42678833 C34.91141804 83.81583489 34.17746886 82.20589026 33.44145203 80.59689331 C29.06437335 71.0116131 24.9416739 61.31896591 20.8125 51.625 C19.67366648 48.9564783 18.53423641 46.28821205 17.39465332 43.62001038 C16.65471371 41.88749226 15.91504528 40.15485829 15.17565918 38.42210388 C12.86547604 33.01182144 10.53564766 27.6104459 8.19140625 22.21484375 C7.34839243 20.26930259 6.50573565 18.32360718 5.66317749 16.37786865 C4.89611479 14.61113261 4.12354894 12.84678906 3.35083008 11.08251953 C2.90247803 10.04595215 2.45412598 9.00938477 1.9921875 7.94140625 C1.60401855 7.05138916 1.21584961 6.16137207 0.81591797 5.24438477 C0 3 0 3 0 0 Z " fill="#263890" transform="translate(925,277)"/>
<path d="M0 0 C9.57 0 19.14 0 29 0 C29 45.21 29 90.42 29 137 C19.43 137 9.86 137 0 137 C0 91.79 0 46.58 0 0 Z " fill="#263890" transform="translate(750,252)"/>
<path d="M0 0 C9.57 0 19.14 0 29 0 C29 45.21 29 90.42 29 137 C19.43 137 9.86 137 0 137 C0 91.79 0 46.58 0 0 Z " fill="#263890" transform="translate(692,252)"/>
<path d="M0 0 C6.55255484 5.34409185 11.19564758 12.97785342 12.6875 21.3125 C13.77420322 33.38698027 12.24636197 43.94685228 4.44921875 53.53125 C1.24152501 56.77450576 -2.33752478 59.10875726 -6.3125 61.3125 C-6.90417969 61.65410156 -7.49585938 61.99570312 -8.10546875 62.34765625 C-15.4318973 65.82487951 -25.53891799 65.42132417 -33.2890625 63.62109375 C-43.78065136 59.73953069 -50.36244163 53.13808733 -55.34765625 43.26171875 C-58.83495458 34.64890287 -58.60007209 24.18427298 -55.75 15.4375 C-51.07975144 4.48601122 -43.8764395 -1.48737175 -33.0625 -6.0625 C-20.98674354 -8.07512608 -10.24828605 -6.954886 0 0 Z M-35.1875 14.625 C-39.83629332 20.50435626 -40.1567765 27.05378127 -39.3125 34.3125 C-37.78503339 39.04449708 -35.34229 43.31894172 -31.3125 46.3125 C-25.83405578 48.52494863 -21.96565188 48.4978383 -16.3125 47.3125 C-11.7338895 45.28939303 -9.26128279 42.24421038 -6.3125 38.3125 C-4.27184558 32.19053674 -4.43697806 24.89298572 -6.5 18.8125 C-10.49610316 13.30063358 -13.51879421 10.67124116 -20.3125 9.3125 C-26.25690297 9.3125 -30.54950114 10.8944357 -35.1875 14.625 Z " fill="#263890" transform="translate(603.3125,450.6875)"/>
<path d="M0 0 C5.61 0 11.22 0 17 0 C17 8.91 17 17.82 17 27 C25.25 27 33.5 27 42 27 C42 18.09 42 9.18 42 0 C47.94 0 53.88 0 60 0 C60 22.77 60 45.54 60 69 C54.06 69 48.12 69 42 69 C42 59.76 42 50.52 42 41 C33.75 41 25.5 41 17 41 C17 50.24 17 59.48 17 69 C11.39 69 5.78 69 0 69 C0 46.23 0 23.46 0 0 Z " fill="#263890" transform="translate(475,445)"/>
<path d="M0 0 C6.6 0 13.2 0 20 0 C24.99491269 11.58182942 29.27937877 23.41307419 33.625 35.25 C34.77266443 38.36840133 35.92103436 41.48654226 37.06942749 44.60467529 C37.77903057 46.53223019 38.48807035 48.45999258 39.19644165 50.38800049 C39.52042938 51.26961853 39.84441711 52.15123657 40.17822266 53.05957031 C40.48447571 53.89572876 40.79072876 54.73188721 41.10626221 55.59338379 C41.69310517 57.17360764 42.29231996 58.74930279 42.90496826 60.31970215 C44.0879676 63.35829006 45 65.70747801 45 69 C38.73 69 32.46 69 26 69 C23 60 23 60 23 57 C10.625 57.495 10.625 57.495 -2 58 C-3.32 61.63 -4.64 65.26 -6 69 C-12.27 69 -18.54 69 -25 69 C-20.40654766 54.93438081 -15.40775486 41.0548823 -10.25 27.1875 C-9.47500664 25.09579713 -8.70026571 23.00400072 -7.92578125 20.91210938 C-7.18511821 18.91398006 -6.44424091 16.91593014 -5.703125 14.91796875 C-5.36041565 13.99404831 -5.0177063 13.07012787 -4.66461182 12.11820984 C-4.18335846 10.82449211 -4.18335846 10.82449211 -3.69238281 9.50463867 C-3.41291809 8.75284836 -3.13345337 8.00105804 -2.84552002 7.22648621 C-1.92643358 4.80627942 -0.96147306 2.40368266 0 0 Z M10 21 C8.82538445 24.10121711 7.66169544 27.20642241 6.5 30.3125 C6.16613281 31.19357422 5.83226562 32.07464844 5.48828125 32.98242188 C5.01455078 34.25375977 5.01455078 34.25375977 4.53125 35.55078125 C4.23798828 36.33106689 3.94472656 37.11135254 3.64257812 37.9152832 C2.85272117 40.11423319 2.85272117 40.11423319 3 43 C7.95 43 12.9 43 18 43 C15.69 35.74 13.38 28.48 11 21 C10.67 21 10.34 21 10 21 Z " fill="#263890" transform="translate(859,445)"/>
<path d="M0 0 C5.00991945 3.96807363 7.20472158 7.36243247 8.84765625 13.5234375 C8.84765625 14.5134375 8.84765625 15.5034375 8.84765625 16.5234375 C5.74398128 16.66859427 2.64117598 16.75744603 -0.46484375 16.8359375 C-1.34591797 16.87783203 -2.22699219 16.91972656 -3.13476562 16.96289062 C-5.57013134 17.00919035 -7.76393209 17.00847057 -10.15234375 16.5234375 C-12.03515625 14.05859375 -12.03515625 14.05859375 -13.15234375 11.5234375 C-17.74891087 10.29993921 -17.74891087 10.29993921 -22.15234375 11.5234375 C-22.15234375 14.1634375 -22.15234375 16.8034375 -22.15234375 19.5234375 C-20.93224609 19.91402344 -20.93224609 19.91402344 -19.6875 20.3125 C-15.5971199 21.71362468 -11.59607822 23.27495034 -7.58984375 24.8984375 C-6.84798828 25.18976563 -6.10613281 25.48109375 -5.34179688 25.78125 C1.29922736 28.47787249 6.07374041 31.51285462 9.1171875 38.18359375 C10.93847752 44.01756552 10.75655521 50.18079163 8.41015625 55.8359375 C5.53552783 60.84335476 0.4110335 64.28268619 -4.9921875 66.1640625 C-14.40642919 67.73026546 -24.78885223 67.45364022 -33.15234375 62.5234375 C-37.22832878 58.99288265 -40.85330543 54.86392838 -42.15234375 49.5234375 C-42.15234375 47.8734375 -42.15234375 46.2234375 -42.15234375 44.5234375 C-35.88234375 44.5234375 -29.61234375 44.5234375 -23.15234375 44.5234375 C-22.16234375 46.5034375 -21.17234375 48.4834375 -20.15234375 50.5234375 C-17.38984339 51.90468768 -15.20503276 51.71423056 -12.15234375 51.5234375 C-9.75036574 49.59017494 -9.75036574 49.59017494 -10.1328125 46.08984375 C-10.78420731 42.33724216 -10.78420731 42.33724216 -13.890625 40.73828125 C-15.07011719 40.31675781 -16.24960937 39.89523437 -17.46484375 39.4609375 C-18.7418657 38.96999022 -20.01789273 38.47644802 -21.29296875 37.98046875 C-21.93814453 37.73893066 -22.58332031 37.49739258 -23.24804688 37.24853516 C-38.0220769 31.62303911 -38.0220769 31.62303911 -41.44140625 24.92578125 C-43.17605512 19.06419304 -43.38049993 12.81760218 -41.23046875 7.05078125 C-38.07762015 1.57424229 -33.96062709 -1.30644444 -28.15234375 -3.7265625 C-18.59314066 -6.08975079 -8.18056227 -5.61207357 0 0 Z " fill="#263890" transform="translate(667.15234375,448.4765625)"/>
<path d="M0 0 C39.46153846 0 39.46153846 0 45.875 5.4375 C46.57625 6.283125 47.2775 7.12875 48 8 C48.51175781 8.59554688 49.02351562 9.19109375 49.55078125 9.8046875 C53.06883044 15.13391565 53.55874976 22.70483535 52.375 28.875 C50.38990043 35.74840725 46.9358197 39.44113573 40.90234375 43.01953125 C37.68156783 44.67952048 35.11411584 45.12157125 31.55078125 45.09765625 C30.78677002 45.09515869 30.02275879 45.09266113 29.2355957 45.09008789 C28.27097412 45.08098389 27.30635254 45.07187988 26.3125 45.0625 C21.7028125 45.0315625 21.7028125 45.0315625 17 45 C17 53.25 17 61.5 17 70 C11.39 70 5.78 70 0 70 C0 46.9 0 23.8 0 0 Z M17 14 C17 19.61 17 25.22 17 31 C18.8975 31.04125 20.795 31.0825 22.75 31.125 C23.81734375 31.14820313 24.8846875 31.17140625 25.984375 31.1953125 C28.95865809 31.00267758 30.54758498 30.64249505 33 29 C34.71171078 26.06563867 35.0111846 24.27961498 34.875 20.875 C33.85721475 17.53084845 33.0062552 16.67996614 30 15 C26.98509443 13.99503148 24.95818308 13.89664697 21.8125 13.9375 C19.4303125 13.9684375 19.4303125 13.9684375 17 14 Z " fill="#263890" transform="translate(688,445)"/>
<path d="M0 0 C18.15 0 36.3 0 55 0 C55 4.62 55 9.24 55 14 C48.73 14 42.46 14 36 14 C36 32.15 36 50.3 36 69 C30.06 69 24.12 69 18 69 C18 50.85 18 32.7 18 14 C12.06 14 6.12 14 0 14 C0 9.38 0 4.76 0 0 Z " fill="#263890" transform="translate(776,445)"/>
<path d="M0 0 C5.94 0 11.88 0 18 0 C18 18.48 18 36.96 18 56 C25.26 56 32.52 56 40 56 C40 60.62 40 65.24 40 70 C26.8 70 13.6 70 0 70 C0 46.9 0 23.8 0 0 Z " fill="#263890" transform="translate(912,445)"/>
<path d="M0 0 C5.94 0 11.88 0 18 0 C18 22.77 18 45.54 18 69 C12.06 69 6.12 69 0 69 C0 46.23 0 23.46 0 0 Z " fill="#263890" transform="translate(750,445)"/>
</svg>
